<svg width="103" height="103" viewBox="0 0 103 103" fill="none" xmlns="http://www.w3.org/2000/svg">
<path d="M51.5817 98.3046C25.7317 98.3046 4.77173 77.3546 4.77173 51.4946C4.77173 25.6346 25.7317 4.68457 51.5817 4.68457C77.4317 4.68457 98.3917 25.6446 98.3917 51.4946C98.3917 77.3446 77.4317 98.3046 51.5817 98.3046Z" fill="#F9E488"/>
<path fill-rule="evenodd" clip-rule="evenodd" d="M97.4819 51.4945C97.4819 76.8445 76.9319 97.3945 51.5819 97.3945C26.2319 97.3945 5.68189 76.8445 5.68189 51.4945C5.68189 26.1445 26.2319 5.59449 51.5819 5.59449C76.9319 5.59449 97.4819 26.1445 97.4819 51.4945ZM51.5819 1.85449C79.0019 1.85449 101.222 24.0745 101.222 51.4945C101.222 78.9145 78.9919 101.134 51.5819 101.134C24.1619 101.134 1.94189 78.9045 1.94189 51.4945C1.94189 24.0745 24.1619 1.85449 51.5819 1.85449Z" fill="#F2F1F0"/>
<path fill-rule="evenodd" clip-rule="evenodd" d="M94.6717 51.4941C94.6717 75.2941 75.3817 94.5841 51.5817 94.5841C27.7817 94.5841 8.49171 75.2941 8.49171 51.4941C8.49171 27.6941 27.7817 8.40406 51.5817 8.40406C75.3817 8.40406 94.6717 27.6941 94.6717 51.4941ZM51.5817 4.66406C77.4417 4.66406 98.4117 25.6341 98.4117 51.4941C98.4117 77.3541 77.4417 98.3241 51.5817 98.3241C25.7217 98.3241 4.75171 77.3541 4.75171 51.4941C4.75171 25.6341 25.7117 4.66406 51.5817 4.66406Z" fill="#F3C900"/>
<path d="M52.8619 50.584H25.6719" stroke="#C28318" stroke-width="2"/>
<path d="M76.6719 50.584H59.6719" stroke="#C28318" stroke-width="2"/>
<path d="M52.6719 32.584H50.6719V49.584H52.6719V32.584Z" fill="#C18217"/>
<path d="M52.6719 54.584H50.6719V71.584H52.6719V54.584Z" fill="white"/>
<path d="M25.6819 43.1144C20.1419 43.1144 15.6719 41.3944 15.6719 39.2744V59.6844C15.6719 61.7744 20.1919 63.4944 25.5519 63.5144H25.6919C31.2019 63.5144 35.6819 61.8044 35.6819 59.6844V39.2744C35.6719 41.3944 31.2019 43.1144 25.6819 43.1144Z" fill="url(#paint0_linear)"/>
<path d="M35.6719 40.174C35.6719 42.164 31.1519 43.764 25.6819 43.764C20.2119 43.764 15.6719 42.164 15.6719 40.174C15.6719 38.184 20.1919 36.584 25.6819 36.584C31.1719 36.584 35.6719 38.184 35.6719 40.174Z" fill="#E8E8E8"/>
<path d="M25.682 41.974C21.612 41.974 18.282 41.154 18.282 40.174C18.282 39.194 21.592 38.374 25.682 38.374C29.772 38.374 33.062 39.174 33.062 40.174C33.062 41.154 29.752 41.974 25.682 41.974Z" fill="#0078D4"/>
<path d="M18.4319 40.4736C19.1719 41.1036 20.0719 41.9236 25.6719 41.9236C28.7519 41.9736 31.2019 41.6336 32.8719 40.6036C30.7519 39.9436 27.8819 39.6536 25.6719 39.7036C23.4719 39.6336 20.5519 39.8136 18.4319 40.4736Z" fill="#0060A9"/>
<path d="M51.6819 18.1144C46.1419 18.1144 41.6719 16.3944 41.6719 14.2744V34.6844C41.6719 36.7744 46.1919 38.4944 51.5519 38.5144H51.6919C57.2019 38.5144 61.6819 36.8044 61.6819 34.6844V14.2744C61.6719 16.3944 57.2019 18.1144 51.6819 18.1144Z" fill="url(#paint1_linear)"/>
<path d="M61.6719 15.174C61.6719 17.164 57.1519 18.764 51.6819 18.764C46.2119 18.764 41.6719 17.164 41.6719 15.174C41.6719 13.184 46.1919 11.584 51.6819 11.584C57.1719 11.584 61.6719 13.184 61.6719 15.174Z" fill="#E8E8E8"/>
<path d="M51.682 16.974C47.612 16.974 44.282 16.154 44.282 15.174C44.282 14.194 47.592 13.374 51.682 13.374C55.772 13.374 59.062 14.174 59.062 15.174C59.062 16.154 55.752 16.974 51.682 16.974Z" fill="#0078D4"/>
<path d="M44.4319 15.4736C45.1719 16.1036 46.0719 16.9236 51.6719 16.9236C54.7519 16.9736 57.2019 16.6336 58.8719 15.6036C56.7519 14.9436 53.8819 14.6536 51.6719 14.7036C49.4719 14.6336 46.5519 14.8136 44.4319 15.4736Z" fill="#0060A9"/>
<path d="M77.6819 43.1144C72.1419 43.1144 67.6719 41.3944 67.6719 39.2744V59.6844C67.6719 61.7744 72.1919 63.4944 77.5519 63.5144H77.6919C83.2019 63.5144 87.6819 61.8044 87.6819 59.6844V39.2744C87.6719 41.3944 83.2019 43.1144 77.6819 43.1144Z" fill="url(#paint2_linear)"/>
<path d="M87.6719 40.174C87.6719 42.164 83.1519 43.764 77.6819 43.764C72.2119 43.764 67.6719 42.164 67.6719 40.174C67.6719 38.184 72.1919 36.584 77.6819 36.584C83.1719 36.584 87.6719 38.184 87.6719 40.174Z" fill="#E8E8E8"/>
<path d="M77.682 41.974C73.612 41.974 70.282 41.154 70.282 40.174C70.282 39.194 73.592 38.374 77.682 38.374C81.772 38.374 85.062 39.174 85.062 40.174C85.062 41.154 81.752 41.974 77.682 41.974Z" fill="#0078D4"/>
<path d="M70.4319 40.4736C71.1719 41.1036 72.0719 41.9236 77.6719 41.9236C80.7519 41.9736 83.2019 41.6336 84.8719 40.6036C82.7519 39.9436 79.8819 39.6536 77.6719 39.7036C75.4719 39.6336 72.5519 39.8136 70.4319 40.4736Z" fill="#0060A9"/>
<path d="M40.2719 66.584H63.0719C63.4019 66.584 63.6719 66.854 63.6719 67.184V82.534C63.6719 82.864 63.4019 83.134 63.0719 83.134H40.2719C39.9419 83.134 39.6719 82.864 39.6719 82.534V67.184C39.6719 66.854 39.9419 66.584 40.2719 66.584Z" fill="url(#paint3_linear)"/>
<path d="M56.6519 88.3238C54.1919 87.9238 54.1019 86.0938 54.1019 83.1338H49.2319C49.2319 86.0938 49.1519 87.9238 46.6919 88.3238C45.9919 88.4038 45.4619 89.0238 45.4619 89.7538H57.8719C57.8819 89.0238 57.3519 88.4038 56.6519 88.3238Z" fill="url(#paint4_linear)"/>
<path d="M51.5815 64.6137C44.8333 64.6137 39.3616 59.1447 39.3616 52.3938C39.3616 45.6429 44.8333 40.1738 51.5815 40.1738C58.3298 40.1738 63.8015 45.6455 63.8015 52.3938C63.8015 59.142 58.3298 64.6137 51.5815 64.6137Z" fill="white"/>
<path d="M57.1615 61.1643H51.5979V44.5059C51.5979 43.9083 52.0824 43.4238 52.6799 43.4238H57.1615C57.759 43.4238 58.2435 43.9083 58.2435 44.5059V60.0742C58.2435 60.6718 57.759 61.1643 57.1615 61.1643Z" fill="url(#paint5_linear)"/>
<path d="M53.56 61.1636H47.8511V48.8979C47.8511 48.373 48.279 47.9531 48.7958 47.9531H53.5519C54.0768 47.9531 54.4967 48.3811 54.4967 48.8979V60.2108C54.5048 60.7357 54.0768 61.1636 53.56 61.1636Z" fill="url(#paint6_linear)"/>
<path d="M49.7002 61.1641H45.5174C44.8391 61.1641 44.282 60.615 44.282 59.9286V53.5333C44.282 52.855 44.8311 52.2979 45.5174 52.2979H49.7083C50.3866 52.2979 50.9438 52.8469 50.9438 53.5333V59.9286C50.9276 60.6069 50.3785 61.1641 49.7002 61.1641Z" fill="url(#paint7_linear)"/>
<defs>
<linearGradient id="paint0_linear" x1="25.6738" y1="62.935" x2="25.6738" y2="37.9951" gradientUnits="userSpaceOnUse">
<stop stop-color="#0078D4"/>
<stop offset="0.16" stop-color="#1380DA"/>
<stop offset="0.53" stop-color="#3C91E5"/>
<stop offset="0.82" stop-color="#559CEC"/>
<stop offset="1" stop-color="#5EA0EF"/>
</linearGradient>
<linearGradient id="paint1_linear" x1="51.6738" y1="37.935" x2="51.6738" y2="12.9951" gradientUnits="userSpaceOnUse">
<stop stop-color="#0078D4"/>
<stop offset="0.16" stop-color="#1380DA"/>
<stop offset="0.53" stop-color="#3C91E5"/>
<stop offset="0.82" stop-color="#559CEC"/>
<stop offset="1" stop-color="#5EA0EF"/>
</linearGradient>
<linearGradient id="paint2_linear" x1="77.6738" y1="62.935" x2="77.6738" y2="37.9951" gradientUnits="userSpaceOnUse">
<stop stop-color="#0078D4"/>
<stop offset="0.16" stop-color="#1380DA"/>
<stop offset="0.53" stop-color="#3C91E5"/>
<stop offset="0.82" stop-color="#559CEC"/>
<stop offset="1" stop-color="#5EA0EF"/>
</linearGradient>
<linearGradient id="paint3_linear" x1="51.6688" y1="83.1348" x2="51.6688" y2="66.5848" gradientUnits="userSpaceOnUse">
<stop stop-color="#0078D4"/>
<stop offset="0.82" stop-color="#5EA0EF"/>
</linearGradient>
<linearGradient id="paint4_linear" x1="51.6639" y1="89.7545" x2="51.6639" y2="83.1346" gradientUnits="userSpaceOnUse">
<stop offset="0.15" stop-color="#CCCCCC"/>
<stop offset="1" stop-color="#707070"/>
</linearGradient>
<linearGradient id="paint5_linear" x1="54.8461" y1="45.0453" x2="54.9876" y2="59.7629" gradientUnits="userSpaceOnUse">
<stop offset="0.00753769" stop-color="#E0A310"/>
<stop offset="1" stop-color="#CA810E"/>
</linearGradient>
<linearGradient id="paint6_linear" x1="50.9966" y1="48.4651" x2="51.4211" y2="64.0319" gradientUnits="userSpaceOnUse">
<stop offset="0.00753769" stop-color="#F2CC40"/>
<stop offset="1" stop-color="#E7B116"/>
</linearGradient>
<linearGradient id="paint7_linear" x1="47.4475" y1="52.9789" x2="47.8721" y2="63.0265" gradientUnits="userSpaceOnUse">
<stop stop-color="#F8E17B"/>
<stop offset="0.5302" stop-color="#F6D856"/>
<stop offset="1" stop-color="#F6D856"/>
</linearGradient>
</defs>
</svg>
